<?xml version="1.0" encoding="UTF-8" standalone="yes"?>
<!DOCTYPE svg PUBLIC "-//W3C//DTD SVG 1.0//EN" "http://www.w3.org/TR/2001/REC-SVG-20010904/DTD/svg10.dtd">
<svg height="840" width="920" xmlns="http://www.w3.org/2000/svg" xmlns:svg="http://www.w3.org/2000/svg" xmlns:xlink="http://www.w3.org/1999/xlink">
	<text fill="black" font-family="Arial" font-size="20" stroke="black" text-anchor="middle" x="440" y="35.7142857142857">PCA</text>
	<rect fill="none" height="720" rx="3" ry="3" stroke="black" stroke-width="2" width="720" x="80" y="60" />
	<text fill="black" font-family="Arial" font-size="15" stroke="black" text-anchor="middle" x="440" y="837">PC1</text>
	<text fill="black" font-family="Arial" font-size="15" stroke="black" text-anchor="middle" transform="rotate(-90,20,420)" x="20" y="420">PC2</text>
	<line fill="black" stroke="black" stroke-width="3" x1="80" x2="80" y1="780" y2="795" />
	<text font-family="Arial" font-size="15" text-anchor="middle" x="80" y="810">-0.429 </text>
	<line fill="black" stroke="black" stroke-width="3" x1="65" x2="80" y1="60" y2="60" />
	<text font-family="Arial" font-size="15" text-anchor="end" x="63" y="66">-0.353 </text>
	<line fill="black" stroke="black" stroke-width="3" x1="152" x2="152" y1="780" y2="795" />
	<text font-family="Arial" font-size="15" text-anchor="middle" x="152" y="810">-0.328 </text>
	<line fill="black" stroke="black" stroke-width="3" x1="65" x2="80" y1="132" y2="132" />
	<text font-family="Arial" font-size="15" text-anchor="end" x="63" y="138">-0.247 </text>
	<line fill="black" stroke="black" stroke-width="3" x1="224" x2="224" y1="780" y2="795" />
	<text font-family="Arial" font-size="15" text-anchor="middle" x="224" y="810">-0.227 </text>
	<line fill="black" stroke="black" stroke-width="3" x1="65" x2="80" y1="204" y2="204" />
	<text font-family="Arial" font-size="15" text-anchor="end" x="63" y="210">-0.142 </text>
	<line fill="black" stroke="black" stroke-width="3" x1="296" x2="296" y1="780" y2="795" />
	<text font-family="Arial" font-size="15" text-anchor="middle" x="296" y="810">-0.126 </text>
	<line fill="black" stroke="black" stroke-width="3" x1="65" x2="80" y1="276" y2="276" />
	<text font-family="Arial" font-size="15" text-anchor="end" x="63" y="282">-0.036 </text>
	<line fill="black" stroke="black" stroke-width="3" x1="368" x2="368" y1="780" y2="795" />
	<text font-family="Arial" font-size="15" text-anchor="middle" x="368" y="810">-0.025 </text>
	<line fill="black" stroke="black" stroke-width="3" x1="65" x2="80" y1="348" y2="348" />
	<text font-family="Arial" font-size="15" text-anchor="end" x="63" y="354">0.070 </text>
	<line fill="black" stroke="black" stroke-width="3" x1="440" x2="440" y1="780" y2="795" />
	<text font-family="Arial" font-size="15" text-anchor="middle" x="440" y="810">0.076 </text>
	<line fill="black" stroke="black" stroke-width="3" x1="65" x2="80" y1="420" y2="420" />
	<text font-family="Arial" font-size="15" text-anchor="end" x="63" y="426">0.175 </text>
	<line fill="black" stroke="black" stroke-width="3" x1="512" x2="512" y1="780" y2="795" />
	<text font-family="Arial" font-size="15" text-anchor="middle" x="512" y="810">0.177 </text>
	<line fill="black" stroke="black" stroke-width="3" x1="65" x2="80" y1="492" y2="492" />
	<text font-family="Arial" font-size="15" text-anchor="end" x="63" y="498">0.281 </text>
	<line fill="black" stroke="black" stroke-width="3" x1="584" x2="584" y1="780" y2="795" />
	<text font-family="Arial" font-size="15" text-anchor="middle" x="584" y="810">0.278 </text>
	<line fill="black" stroke="black" stroke-width="3" x1="65" x2="80" y1="564" y2="564" />
	<text font-family="Arial" font-size="15" text-anchor="end" x="63" y="570">0.387 </text>
	<line fill="black" stroke="black" stroke-width="3" x1="656" x2="656" y1="780" y2="795" />
	<text font-family="Arial" font-size="15" text-anchor="middle" x="656" y="810">0.379 </text>
	<line fill="black" stroke="black" stroke-width="3" x1="65" x2="80" y1="636" y2="636" />
	<text font-family="Arial" font-size="15" text-anchor="end" x="63" y="642">0.493 </text>
	<line fill="black" stroke="black" stroke-width="3" x1="728" x2="728" y1="780" y2="795" />
	<text font-family="Arial" font-size="15" text-anchor="middle" x="728" y="810">0.480 </text>
	<line fill="black" stroke="black" stroke-width="3" x1="65" x2="80" y1="708" y2="708" />
	<text font-family="Arial" font-size="15" text-anchor="end" x="63" y="714">0.598 </text>
	<line fill="black" stroke="black" stroke-width="3" x1="800" x2="800" y1="780" y2="795" />
	<text font-family="Arial" font-size="15" text-anchor="middle" x="800" y="810">0.581 </text>
	<line fill="black" stroke="black" stroke-width="3" x1="65" x2="80" y1="780" y2="780" />
	<text font-family="Arial" font-size="15" text-anchor="end" x="63" y="786">0.704 </text>
	<text font-family="Arial" font-size="18" text-anchor="Start" x="822.485" y="67.5">Cluster</text>
	<circle cx="830" cy="90" fill="rgb(27,158,119)" fill-opacity="0.5" r="5.01" />
	<text font-family="Arial" font-size="15" text-anchor="Start" x="837.515" y="92.505">Cluster0</text>
	<circle cx="830" cy="120" fill="rgb(217,95,2)" fill-opacity="0.5" r="5.01" />
	<text font-family="Arial" font-size="15" text-anchor="Start" x="837.515" y="122.505">Cluster1</text>
	<circle cx="830" cy="150" fill="rgb(117,112,179)" fill-opacity="0.5" r="5.01" />
	<text font-family="Arial" font-size="15" text-anchor="Start" x="837.515" y="152.505">Cluster3</text>
	<text font-family="Arial" font-size="18" text-anchor="Start" x="822.485" y="252">Group</text>
	<circle cx="830" cy="270" fill="black" fill-opacity="1" r="5.01" />
	<text font-family="Arial" font-size="15" text-anchor="Start" x="837.515" y="272.505">D9W</text>
	<rect fill="black" fill-opacity="1" height="10.02" stroke="black" stroke-width="1" width="10.02" x="824.99" y="294.99" />
	<text font-family="Arial" font-size="15" text-anchor="Start" x="837.515" y="302.505">D4EF</text>
	<polygon points="830,324.99 835.01,330 830,335.01 824.99,330 " style="fill: black; fill-opacity: 1; stroke: black; stroke-width: 0" />
	<text font-family="Arial" font-size="15" text-anchor="Start" x="837.515" y="332.505">D9EF</text>
	<polygon points="830,355.66134 834.33866,362.505 825.66134,362.505 " style="fill: black; fill-opacity: 1; stroke: black; stroke-width: 1" />
	<text font-family="Arial" font-size="15" text-anchor="Start" x="837.515" y="362.505">D4W</text>
	<rect fill="rgb(217,95,2)" fill-opacity="0.6" height="10.02" stroke="rgb(217,95,2)" stroke-width="1" width="10.02" x="480.498613784634" y="767.233053835869" />
	<rect fill="rgb(117,112,179)" fill-opacity="0.6" height="10.02" stroke="rgb(117,112,179)" stroke-width="1" width="10.02" x="258.11003919426" y="409.753399144351" />
	<rect fill="rgb(217,95,2)" fill-opacity="0.6" height="10.02" stroke="rgb(217,95,2)" stroke-width="1" width="10.02" x="787.931176470588" y="767.931176470588" />
	<polygon points="97.0876495129203,691.006015347718 101.42630951292,697.849675347718 92.7489895129203,697.849675347718 " style="fill: rgb(27,158,119); fill-opacity: 0.6; stroke: rgb(27,158,119); stroke-width: 1" />
	<polygon points="87.0588235294118,578.665415049659 91.3974835294118,585.509075049659 82.7201635294118,585.509075049659 " style="fill: rgb(117,112,179); fill-opacity: 0.6; stroke: rgb(117,112,179); stroke-width: 1" />
	<polygon points="351.246600963092,606.509338212806 355.585260963092,613.352998212806 346.907940963092,613.352998212806 " style="fill: rgb(27,158,119); fill-opacity: 0.6; stroke: rgb(27,158,119); stroke-width: 1" />
	<polygon points="527.375469143283,255.738691686966 532.385469143283,260.748691686966 527.375469143283,265.758691686966 522.365469143283,260.748691686966 " style="fill: rgb(27,158,119); fill-opacity: 0.6; stroke: rgb(27,158,119); stroke-width: 0" />
	<polygon points="448.35383810102,62.0488235294118 453.36383810102,67.0588235294118 448.35383810102,72.0688235294118 443.34383810102,67.0588235294118 " style="fill: rgb(27,158,119); fill-opacity: 0.6; stroke: rgb(27,158,119); stroke-width: 0" />
	<polygon points="688.743470964934,551.64999174399 693.753470964934,556.65999174399 688.743470964934,561.66999174399 683.733470964934,556.65999174399 " style="fill: rgb(217,95,2); fill-opacity: 0.6; stroke: rgb(217,95,2); stroke-width: 0" />
	<circle cx="247.803766358343" cy="550.421091113461" fill="rgb(27,158,119)" fill-opacity="0.6" r="5.01" />
	<circle cx="331.921007668414" cy="573.014927734942" fill="rgb(27,158,119)" fill-opacity="0.6" r="5.01" />
	<circle cx="308.515661159276" cy="616.68021686754" fill="rgb(27,158,119)" fill-opacity="0.6" r="5.01" />
	<!-- 
	Generated using the Perl SVG Module V2.78
	by Ronan Oger
	Info: http://www.roitsystems.com/
 -->
</svg>